<?xml version="1.0" encoding="UTF-8" standalone="no"?>
<!-- Created with Inkscape (http://www.inkscape.org/) -->

<svg
   width="512"
   height="512"
   viewBox="0 0 135.46666 135.46667"
   version="1.1"
   id="svg1"
   inkscape:version="1.3.2 (091e20ef0f, 2023-11-25)"
   sodipodi:docname="flatStylePhone_1.svg"
   xmlns:inkscape="http://www.inkscape.org/namespaces/inkscape"
   xmlns:sodipodi="http://sodipodi.sourceforge.net/DTD/sodipodi-0.dtd"
   xmlns="http://www.w3.org/2000/svg"
   xmlns:svg="http://www.w3.org/2000/svg">
  <sodipodi:namedview
     id="namedview1"
     pagecolor="#ffffff"
     bordercolor="#000000"
     borderopacity="1"
     inkscape:showpageshadow="2"
     inkscape:pageopacity="0.0"
     inkscape:pagecheckerboard="false"
     inkscape:deskcolor="#d1d1d1"
     inkscape:document-units="px"
     labelstyle="default"
     inkscape:zoom="0.69605824"
     inkscape:cx="318.93883"
     inkscape:cy="254.28907"
     inkscape:window-width="1320"
     inkscape:window-height="704"
     inkscape:window-x="46"
     inkscape:window-y="27"
     inkscape:window-maximized="1"
     inkscape:current-layer="layer1" />
  <defs
     id="defs1" />
  <g
     inkscape:label="Layer 1"
     inkscape:groupmode="layer"
     id="layer1">
    <path
       id="path3"
       style="fill:#666666;stroke-width:1.85208;stroke-linecap:round;stroke-linejoin:round"
       d="m 84.926084,46.546908 c -0.635649,0.0535 -1.272888,0.266841 -1.763717,0.627869 L 10.121864,100.90018 7.8873755,100.07956 v 2.9502 l 0.027905,0.006 c -0.083665,0.48074 0.1381167,0.95297 0.6893636,1.27124 L 48.78772,127.50682 c 0.966614,0.55808 2.53544,0.42595 3.517098,-0.29611 L 126.83515,72.389258 c 0.47276,-0.347715 0.71496,-0.766428 0.73691,-1.169954 l 0.007,-10e-4 V 71.172824 67.957 l -2.19601,1.267594 -38.704102,-22.345923 c -0.483305,-0.279037 -1.117219,-0.385264 -1.752864,-0.331763 z" />
    <path
       id="rect1"
       style="fill:#cccccc;stroke-width:1.85208;stroke-linecap:round;stroke-linejoin:round"
       d="m 86.678881,43.732945 40.183299,23.19984 c 0.96662,0.558075 0.95451,1.588652 -0.0272,2.310711 L 52.304639,124.06469 c -0.981661,0.72206 -2.550114,0.85408 -3.516728,0.296 L 8.6046118,101.16086 C 7.6379975,100.60278 7.6501036,99.572205 8.6317575,98.850144 L 83.16215,44.028947 c 0.981661,-0.722056 2.550116,-0.854077 3.516731,-0.296002 z" />
    <path
       id="rect2"
       style="fill:#333333;stroke-width:1.85208;stroke-linecap:round;stroke-linejoin:round"
       d="m 85.823688,45.5527 38.369442,22.152606 c 0.92297,0.53288 0.91141,1.516941 -0.0259,2.206407 L 53.00112,122.25829 c -0.937349,0.68947 -2.435008,0.81553 -3.357989,0.28265 l -38.369466,-22.1526 c -0.922982,-0.532888 -0.911421,-1.516946 0.02592,-2.206415 L 82.465699,45.835341 c 0.937347,-0.689465 2.435006,-0.815525 3.357989,-0.282641 z" />
    <path
       id="path2"
       style="fill:#1a1a1a;stroke-width:1.85208;stroke-linecap:round;stroke-linejoin:round"
       d="m 103.87327,58.925056 a 1.0339634,1.5970786 81.179238 0 1 -2.24307,0.188799 1.0339634,1.5970786 81.179238 0 1 0.0173,-1.473836 1.0339634,1.5970786 81.179238 0 1 2.24306,-0.188798 1.0339634,1.5970786 81.179238 0 1 -0.0173,1.473835 z" />
    <path
       id="path124"
       style="opacity:0.5;fill:#000000;stroke-width:1.85207;stroke-linecap:round;stroke-linejoin:round"
       d="m 84.926084,43.400847 c -0.635649,0.0535 -1.272887,0.266841 -1.763717,0.627869 L 13.273094,95.435913 47.65549,115.91838 c 1.074823,0.6403 1.964887,1.13519 1.99626,1.1095 l 1.232483,-1.01028 c 0.307019,-0.11937 0.604395,-0.26271 0.861964,-0.45217 L 121.81996,64.021811 86.678948,43.733127 c -0.483306,-0.279037 -1.117217,-0.385783 -1.752864,-0.33228 z" />
    <g
       id="g41"
       transform="matrix(0.83931636,0.5,-0.89654534,0.65735324,-10.765343,-56.161574)">
      <path
         id="path4"
         style="opacity:1;fill:#e6e6e6;stroke-width:1.85208;stroke-linecap:round;stroke-linejoin:round"
         d="m 139.86937,21.665761 44.30522,-5e-6 c 1.06576,2e-6 1.92539,0.858004 1.92742,1.923754 l 0.15325,80.91653 c 0.002,1.06577 -0.85437,1.92377 -1.92012,1.92378 l -44.30524,10e-6 c -1.06577,0 -1.9254,-0.858 -1.92743,-1.92376 l -0.15323,-80.916535 c -0.002,-1.065764 0.85435,-1.923765 1.92011,-1.923764 z" />
      <path
         id="path5"
         style="opacity:1;fill:#6161f0;fill-opacity:1;stroke-width:1.85208;stroke-linecap:round;stroke-linejoin:round"
         d="m 139.8143,21.690529 44.30522,-1e-6 c 1.06576,0 1.92539,0.0961 1.92742,0.21545 l 0.15325,9.062204 c 0.002,0.119365 -0.85437,0.215452 -1.92012,0.215453 l -44.30524,1e-6 c -1.06577,0 -1.9254,-0.09608 -1.92743,-0.21545 l -0.15323,-9.062205 c -0.002,-0.119365 0.85435,-0.215451 1.92011,-0.215451 z" />
      <path
         id="path6"
         style="opacity:1;fill:#6161f0;fill-opacity:1;stroke-width:1.85208;stroke-linecap:round;stroke-linejoin:round"
         d="m 139.8143,103.98822 h 44.30522 c 1.06576,0 1.92539,0.025 1.92742,0.056 l 0.15325,2.35442 c 0.002,0.031 -0.85437,0.056 -1.92012,0.056 h -44.30524 c -1.06577,0 -1.9254,-0.025 -1.92743,-0.056 l -0.15323,-2.35442 c -0.002,-0.031 0.85435,-0.056 1.92011,-0.056 z" />
      <path
         id="rect6"
         style="opacity:1;fill:#b1b1ff;stroke-width:1.85208;stroke-linecap:round;stroke-linejoin:round"
         d="m 145.01178,23.196203 h 34.0708 c 1.79545,0 3.24088,1.445432 3.24088,3.240879 0,1.795447 -1.44543,3.240879 -3.24088,3.240879 h -34.0708 c -1.79544,0 -3.24088,-1.445432 -3.24088,-3.240879 0,-1.795447 1.44544,-3.240879 3.24088,-3.240879 z" />
      <path
         id="rect7"
         style="opacity:1;fill:#00d6d6;fill-opacity:1;stroke-width:1.85208;stroke-linecap:round;stroke-linejoin:round"
         d="m 141.60655,33.46116 h 40.99141 c 0.7963,0 1.43738,0.958122 1.43738,2.148258 v 25.222317 c 0,1.190134 -0.64108,2.148258 -1.43738,2.148258 h -40.99141 c -0.7963,0 -1.43738,-0.958124 -1.43738,-2.148258 V 35.609418 c 0,-1.190136 0.64108,-2.148258 1.43738,-2.148258 z" />
      <g
         id="g8"
         transform="translate(0,10.50568)">
        <path
           id="path7"
           style="opacity:1;fill:#b3b3b3;stroke-width:1.85208;stroke-linecap:round;stroke-linejoin:round"
           d="m 141.05132,54.751836 h 25.15751 c 0.48871,0 0.88217,0.06861 0.88217,0.153834 v 1.806137 c 0,0.08522 -0.39346,0.153833 -0.88217,0.153833 h -25.15751 c -0.48871,0 -0.88215,-0.06861 -0.88215,-0.153833 V 54.90567 c 0,-0.08522 0.39344,-0.153834 0.88215,-0.153834 z" />
        <path
           id="path8"
           style="opacity:1;fill:#b3b3b3;stroke-width:1.85208;stroke-linecap:round;stroke-linejoin:round"
           d="m 169.45738,54.751836 h 14.08409 c 0.2736,0 0.49387,0.06861 0.49387,0.153834 v 1.806137 c 0,0.08522 -0.22027,0.153833 -0.49387,0.153833 h -14.08409 c -0.2736,0 -0.49386,-0.06861 -0.49386,-0.153833 V 54.90567 c 0,-0.08522 0.22026,-0.153834 0.49386,-0.153834 z" />
      </g>
      <g
         id="g10"
         transform="translate(0,14.897008)">
        <path
           id="path9"
           style="opacity:1;fill:#b3b3b3;stroke-width:1.85208;stroke-linecap:round;stroke-linejoin:round"
           d="m 141.05132,54.751836 h 25.15751 c 0.48871,0 0.88217,0.06861 0.88217,0.153834 v 1.806137 c 0,0.08522 -0.39346,0.153833 -0.88217,0.153833 h -25.15751 c -0.48871,0 -0.88215,-0.06861 -0.88215,-0.153833 V 54.90567 c 0,-0.08522 0.39344,-0.153834 0.88215,-0.153834 z" />
        <path
           id="path10"
           style="opacity:1;fill:#b3b3b3;stroke-width:1.85208;stroke-linecap:round;stroke-linejoin:round"
           d="m 169.45738,54.751836 h 14.08409 c 0.2736,0 0.49387,0.06861 0.49387,0.153834 v 1.806137 c 0,0.08522 -0.22027,0.153833 -0.49387,0.153833 h -14.08409 c -0.2736,0 -0.49386,-0.06861 -0.49386,-0.153833 V 54.90567 c 0,-0.08522 0.22026,-0.153834 0.49386,-0.153834 z" />
      </g>
      <g
         id="g12"
         transform="translate(0,19.288335)">
        <path
           id="path11"
           style="opacity:1;fill:#b3b3b3;stroke-width:1.85208;stroke-linecap:round;stroke-linejoin:round"
           d="m 141.05132,54.751836 h 25.15751 c 0.48871,0 0.88217,0.06861 0.88217,0.153834 v 1.806137 c 0,0.08522 -0.39346,0.153833 -0.88217,0.153833 h -25.15751 c -0.48871,0 -0.88215,-0.06861 -0.88215,-0.153833 V 54.90567 c 0,-0.08522 0.39344,-0.153834 0.88215,-0.153834 z" />
        <path
           id="path12"
           style="opacity:1;fill:#b3b3b3;stroke-width:1.85208;stroke-linecap:round;stroke-linejoin:round"
           d="m 169.45738,54.751836 h 14.08409 c 0.2736,0 0.49387,0.06861 0.49387,0.153834 v 1.806137 c 0,0.08522 -0.22027,0.153833 -0.49387,0.153833 h -14.08409 c -0.2736,0 -0.49386,-0.06861 -0.49386,-0.153833 V 54.90567 c 0,-0.08522 0.22026,-0.153834 0.49386,-0.153834 z" />
      </g>
      <g
         id="g14"
         transform="translate(0,23.679663)">
        <path
           id="path13"
           style="opacity:1;fill:#b3b3b3;stroke-width:1.85208;stroke-linecap:round;stroke-linejoin:round"
           d="m 141.05132,54.751836 h 25.15751 c 0.48871,0 0.88217,0.06861 0.88217,0.153834 v 1.806137 c 0,0.08522 -0.39346,0.153833 -0.88217,0.153833 h -25.15751 c -0.48871,0 -0.88215,-0.06861 -0.88215,-0.153833 V 54.90567 c 0,-0.08522 0.39344,-0.153834 0.88215,-0.153834 z" />
        <path
           id="path14"
           style="opacity:1;fill:#b3b3b3;stroke-width:1.85208;stroke-linecap:round;stroke-linejoin:round"
           d="m 169.45738,54.751836 h 14.08409 c 0.2736,0 0.49387,0.06861 0.49387,0.153834 v 1.806137 c 0,0.08522 -0.22027,0.153833 -0.49387,0.153833 h -14.08409 c -0.2736,0 -0.49386,-0.06861 -0.49386,-0.153833 V 54.90567 c 0,-0.08522 0.22026,-0.153834 0.49386,-0.153834 z" />
      </g>
      <g
         id="g16"
         transform="translate(0,28.07099)">
        <path
           id="path15"
           style="opacity:1;fill:#b3b3b3;stroke-width:1.85208;stroke-linecap:round;stroke-linejoin:round"
           d="m 141.05132,54.751836 h 25.15751 c 0.48871,0 0.88217,0.06861 0.88217,0.153834 v 1.806137 c 0,0.08522 -0.39346,0.153833 -0.88217,0.153833 h -25.15751 c -0.48871,0 -0.88215,-0.06861 -0.88215,-0.153833 V 54.90567 c 0,-0.08522 0.39344,-0.153834 0.88215,-0.153834 z" />
        <path
           id="path16"
           style="opacity:1;fill:#b3b3b3;stroke-width:1.85208;stroke-linecap:round;stroke-linejoin:round"
           d="m 169.45738,54.751836 h 14.08409 c 0.2736,0 0.49387,0.06861 0.49387,0.153834 v 1.806137 c 0,0.08522 -0.22027,0.153833 -0.49387,0.153833 h -14.08409 c -0.2736,0 -0.49386,-0.06861 -0.49386,-0.153833 V 54.90567 c 0,-0.08522 0.22026,-0.153834 0.49386,-0.153834 z" />
      </g>
      <g
         id="g18"
         transform="translate(0,32.462318)">
        <path
           id="path17"
           style="opacity:1;fill:#b3b3b3;stroke-width:1.85208;stroke-linecap:round;stroke-linejoin:round"
           d="m 141.05132,54.751836 h 25.15751 c 0.48871,0 0.88217,0.06861 0.88217,0.153834 v 1.806137 c 0,0.08522 -0.39346,0.153833 -0.88217,0.153833 h -25.15751 c -0.48871,0 -0.88215,-0.06861 -0.88215,-0.153833 V 54.90567 c 0,-0.08522 0.39344,-0.153834 0.88215,-0.153834 z" />
        <path
           id="path18"
           style="opacity:1;fill:#b3b3b3;stroke-width:1.85208;stroke-linecap:round;stroke-linejoin:round"
           d="m 169.45738,54.751836 h 14.08409 c 0.2736,0 0.49387,0.06861 0.49387,0.153834 v 1.806137 c 0,0.08522 -0.22027,0.153833 -0.49387,0.153833 h -14.08409 c -0.2736,0 -0.49386,-0.06861 -0.49386,-0.153833 V 54.90567 c 0,-0.08522 0.22026,-0.153834 0.49386,-0.153834 z" />
      </g>
      <g
         id="g21"
         style="fill:#999999">
        <path
           id="path19"
           style="fill:#999999;fill-opacity:1;stroke-width:1.85208;stroke-linecap:round;stroke-linejoin:round"
           d="m 140.6092,91.605481 h 12.54874 c 0.24378,0 0.44003,0.327995 0.44003,0.735415 v 8.634394 c 0,0.40742 -0.19625,0.73541 -0.44003,0.73541 H 140.6092 c -0.24378,0 -0.44003,-0.32799 -0.44003,-0.73541 v -8.634394 c 0,-0.40742 0.19625,-0.735415 0.44003,-0.735415 z" />
        <path
           id="path20"
           style="fill:#999999;fill-opacity:1;stroke-width:1.85208;stroke-linecap:round;stroke-linejoin:round"
           d="m 156.27314,91.605481 h 11.89688 c 0.23111,0 0.41717,0.327995 0.41717,0.735415 v 8.634394 c 0,0.40742 -0.18606,0.73541 -0.41717,0.73541 h -11.89688 c -0.23111,0 -0.41716,-0.32799 -0.41716,-0.73541 v -8.634394 c 0,-0.40742 0.18605,-0.735415 0.41716,-0.735415 z" />
        <path
           id="path21"
           style="fill:#999999;fill-opacity:1;stroke-width:1.85208;stroke-linecap:round;stroke-linejoin:round"
           d="m 171.27741,91.605481 h 12.32572 c 0.23944,0 0.43221,0.327995 0.43221,0.735415 v 8.634394 c 0,0.40742 -0.19277,0.73541 -0.43221,0.73541 h -12.32572 c -0.23944,0 -0.43221,-0.32799 -0.43221,-0.73541 v -8.634394 c 0,-0.40742 0.19277,-0.735415 0.43221,-0.735415 z" />
      </g>
      <path
         d="m 148.99188,43.775577 v 4.7371 l -3.9243,-4.7371 h -2.0701 v 8.89 h 2.4638 v -4.7371 l 3.9243,4.7371 h 2.0701 v -8.89 z m 5.95048,6.9469 v -1.6256 h 3.9497 v -1.8796 h -3.9497 v -1.4986 h 4.4831 v -1.9431 h -6.9723 v 8.89 h 7.1374 v -1.9431 z m 16.68198,-6.9469 -1.8669,5.7277 -1.7907,-5.7277 h -2.3114 l -1.8796,5.6769 -1.7907,-5.6769 h -2.5908 l 2.8829,8.89 h 2.6924 l 1.778,-5.4102 1.7018,5.4102 h 2.6924 l 2.8829,-8.89 z m 5.64569,9.0678 c 2.6416,0 3.937,-1.3208 3.937,-2.8702 0,-3.2766 -5.0419,-2.2606 -5.0419,-3.6195 0,-0.4445 0.381,-0.8001 1.4351,-0.8001 0.7747,0 1.6129,0.2286 2.4638,0.6858 l 0.7747,-1.8669 c -0.8763,-0.508 -2.0701,-0.7747 -3.2258,-0.7747 -2.6416,0 -3.937,1.2954 -3.937,2.8829 0,3.302 5.0546,2.2733 5.0546,3.683 0,0.4318 -0.4064,0.7239 -1.4478,0.7239 -1.0287,0 -2.1463,-0.3556 -2.9337,-0.8763 l -0.8255,1.8542 c 0.8382,0.5842 2.286,0.9779 3.7465,0.9779 z"
         id="text21"
         style="font-weight:800;font-size:12.7px;font-family:Montserrat;-inkscape-font-specification:'Montserrat, Ultra-Bold';text-align:end;letter-spacing:-0.780521px;word-spacing:0px;text-anchor:end;fill:#ffffff;stroke-width:1.85208;stroke-linecap:round;stroke-linejoin:round"
         aria-label="NEWS" />
    </g>
    <path
       id="path90"
       style="opacity:0.483058;fill:#000000;stroke-width:1.85208;stroke-linecap:round;stroke-linejoin:round"
       d="m 85.403057,27.175998 c -0.03384,-0.0034 -0.05815,-6.31e-4 -0.07131,0.0093 l -3.056665,2.306838 -66.013541,48.557242 28.986862,17.565853 c 1.039955,0.6302 1.903511,1.11655 1.935799,1.090889 l 1.267623,-1.008207 c 0.310402,-0.120111 0.611647,-0.264208 0.875915,-0.453719 L 117.72305,46.195509 87.205014,28.015223 c -0.08783,-0.05232 -0.1855,-0.09328 -0.283703,-0.132808 -0.69289,-0.398129 -1.303976,-0.684781 -1.518254,-0.706417 z" />
    <g
       id="g47"
       transform="matrix(0.8081583,0.50152447,-0.91474313,0.66971276,-89.003435,-90.872657)">
      <path
         id="path22"
         style="opacity:1;fill:#e6e6e6;stroke-width:1.85208;stroke-linecap:round;stroke-linejoin:round"
         d="m 209.46041,-8.5431078 44.30522,-5e-6 c 1.06576,2e-6 1.92539,0.858004 1.92742,1.923754 l 0.15325,80.9165298 c 0.002,1.06577 -0.85437,1.92377 -1.92012,1.92378 l -44.30524,1e-5 c -1.06577,0 -1.9254,-0.858 -1.92743,-1.92376 l -0.15323,-80.9165348 c -0.002,-1.065764 0.85435,-1.923765 1.92011,-1.923764 z" />
      <path
         id="path23"
         style="opacity:1;fill:#ff5555;fill-opacity:1;stroke-width:1.85208;stroke-linecap:round;stroke-linejoin:round"
         d="m 209.40534,-8.5183398 44.30522,-1e-6 c 1.06576,0 1.92539,0.0961 1.92742,0.21545 l 0.15325,9.06220403 c 0.002,0.119365 -0.85437,0.215452 -1.92012,0.215453 l -44.30524,1e-6 c -1.06577,0 -1.9254,-0.09608 -1.92743,-0.21545 l -0.15323,-9.06220503 c -0.002,-0.119365 0.85435,-0.215451 1.92011,-0.215451 z" />
      <path
         id="path24"
         style="opacity:1;fill:#ff5555;fill-opacity:1;stroke-width:1.85208;stroke-linecap:round;stroke-linejoin:round"
         d="m 209.40534,73.779351 h 44.30522 c 1.06576,0 1.92539,0.025 1.92742,0.056 l 0.15325,2.35442 c 0.002,0.031 -0.85437,0.056 -1.92012,0.056 h -44.30524 c -1.06577,0 -1.9254,-0.025 -1.92743,-0.056 l -0.15323,-2.35442 c -0.002,-0.031 0.85435,-0.056 1.92011,-0.056 z" />
      <rect
         style="opacity:1;fill:#ffaaaa;fill-opacity:1;stroke:none;stroke-width:1.85208;stroke-linecap:round;stroke-linejoin:round"
         id="rect24"
         width="40.552555"
         height="6.4817581"
         x="211.36195"
         y="-7.0126657"
         ry="3.2408791" />
      <path
         id="path34"
         style="fill:#b3b3b3;stroke-width:1.85208;stroke-linecap:round;stroke-linejoin:round"
         d="m 210.64236,52.613957 h 25.15751 c 0.48871,0 0.88218,0.06861 0.88218,0.153834 v 1.806137 c 0,0.08522 -0.39347,0.153833 -0.88218,0.153833 h -25.15751 c -0.4887,0 -0.88214,-0.06861 -0.88214,-0.153833 v -1.806137 c 0,-0.08522 0.39344,-0.153834 0.88214,-0.153834 z" />
      <path
         id="path35"
         style="fill:#b3b3b3;stroke-width:1.85208;stroke-linecap:round;stroke-linejoin:round"
         d="m 239.04842,52.613957 h 14.08409 c 0.2736,0 0.49387,0.06861 0.49387,0.153834 v 1.806137 c 0,0.08522 -0.22027,0.153833 -0.49387,0.153833 h -14.08409 c -0.27359,0 -0.49386,-0.06861 -0.49386,-0.153833 v -1.806137 c 0,-0.08522 0.22026,-0.153834 0.49386,-0.153834 z" />
      <g
         id="g37"
         transform="translate(69.591045,2.2534492)">
        <path
           id="path36"
           style="opacity:1;fill:#b3b3b3;stroke-width:1.85208;stroke-linecap:round;stroke-linejoin:round"
           d="m 141.05132,54.751836 h 25.15751 c 0.48871,0 0.88217,0.06861 0.88217,0.153834 v 1.806137 c 0,0.08522 -0.39346,0.153833 -0.88217,0.153833 h -25.15751 c -0.48871,0 -0.88215,-0.06861 -0.88215,-0.153833 V 54.90567 c 0,-0.08522 0.39344,-0.153834 0.88215,-0.153834 z" />
        <path
           id="path37"
           style="opacity:1;fill:#b3b3b3;stroke-width:1.85208;stroke-linecap:round;stroke-linejoin:round"
           d="m 169.45738,54.751836 h 14.08409 c 0.2736,0 0.49387,0.06861 0.49387,0.153834 v 1.806137 c 0,0.08522 -0.22027,0.153833 -0.49387,0.153833 h -14.08409 c -0.2736,0 -0.49386,-0.06861 -0.49386,-0.153833 V 54.90567 c 0,-0.08522 0.22026,-0.153834 0.49386,-0.153834 z" />
      </g>
      <g
         id="g40"
         style="fill:#999999"
         transform="translate(69.591045,-30.208869)">
        <path
           id="path38"
           style="fill:#999999;fill-opacity:1;stroke-width:1.85208;stroke-linecap:round;stroke-linejoin:round"
           d="m 140.6092,91.605481 h 12.54874 c 0.24378,0 0.44003,0.327995 0.44003,0.735415 v 8.634394 c 0,0.40742 -0.19625,0.73541 -0.44003,0.73541 H 140.6092 c -0.24378,0 -0.44003,-0.32799 -0.44003,-0.73541 v -8.634394 c 0,-0.40742 0.19625,-0.735415 0.44003,-0.735415 z" />
        <path
           id="path39"
           style="fill:#999999;fill-opacity:1;stroke-width:1.85208;stroke-linecap:round;stroke-linejoin:round"
           d="m 156.27314,91.605481 h 11.89688 c 0.23111,0 0.41717,0.327995 0.41717,0.735415 v 8.634394 c 0,0.40742 -0.18606,0.73541 -0.41717,0.73541 h -11.89688 c -0.23111,0 -0.41716,-0.32799 -0.41716,-0.73541 v -8.634394 c 0,-0.40742 0.18605,-0.735415 0.41716,-0.735415 z" />
        <path
           id="path40"
           style="fill:#999999;fill-opacity:1;stroke-width:1.85208;stroke-linecap:round;stroke-linejoin:round"
           d="m 171.27741,91.605481 h 12.32572 c 0.23944,0 0.43221,0.327995 0.43221,0.735415 v 8.634394 c 0,0.40742 -0.19277,0.73541 -0.43221,0.73541 h -12.32572 c -0.23944,0 -0.43221,-0.32799 -0.43221,-0.73541 v -8.634394 c 0,-0.40742 0.19277,-0.735415 0.43221,-0.735415 z" />
      </g>
      <rect
         style="opacity:1;fill:#666666;fill-opacity:1;stroke:none;stroke-width:1.85208;stroke-linecap:round;stroke-linejoin:round"
         id="rect41"
         width="44.637192"
         height="31.000959"
         x="209.37469"
         y="2.685981"
         ry="1.9114988" />
      <rect
         style="opacity:1;fill:#4d4d4d;fill-opacity:1;stroke:none;stroke-width:1.85208;stroke-linecap:round;stroke-linejoin:round"
         id="rect42"
         width="44.637192"
         height="3.484457"
         x="209.37469"
         y="30.202482"
         ry="0.21484932" />
      <rect
         style="opacity:1;fill:#e6e6e6;fill-opacity:1;stroke:none;stroke-width:1.85208;stroke-linecap:round;stroke-linejoin:round"
         id="rect43"
         width="39.799892"
         height="0.62340641"
         x="211.90498"
         y="31.633007"
         ry="0.31170321" />
      <circle
         style="opacity:1;fill:#e6e6e6;fill-opacity:1;stroke:none;stroke-width:1.85208;stroke-linecap:round;stroke-linejoin:round"
         id="path43"
         cx="221.76776"
         cy="31.94471"
         r="1.1886728" />
      <circle
         style="opacity:1;fill:#4d4d4d;fill-opacity:1;stroke:none;stroke-width:1.85208;stroke-linecap:round;stroke-linejoin:round"
         id="path44"
         cx="231.6933"
         cy="17.065449"
         r="8.5212383" />
      <path
         sodipodi:type="star"
         style="opacity:1;fill:#666666;fill-opacity:1;stroke:none;stroke-width:2.29243;stroke-linecap:round;stroke-linejoin:round"
         id="path45"
         inkscape:flatsided="true"
         sodipodi:sides="3"
         sodipodi:cx="188.58589"
         sodipodi:cy="10.926481"
         sodipodi:r1="7.9561915"
         sodipodi:r2="3.978096"
         sodipodi:arg1="0"
         sodipodi:arg2="1.0471976"
         inkscape:rounded="0"
         inkscape:randomized="0"
         d="M 196.54208,10.926481 184.6078,17.816745 V 4.0362173 Z"
         inkscape:transform-center-x="-1.6069745"
         transform="matrix(0.80791142,0,0,0.80791142,79.061168,8.2378191)" />
      <rect
         style="opacity:1;fill:#de8787;fill-opacity:1;stroke:none;stroke-width:1.85208;stroke-linecap:round;stroke-linejoin:round"
         id="rect45"
         width="9.4038181"
         height="8.0753603"
         x="209.37469"
         y="34.855228"
         ry="0.75402606" />
      <path
         id="path46"
         style="fill:#de8787;fill-opacity:1;stroke-width:1.85208;stroke-linecap:round;stroke-linejoin:round"
         d="m 220.73643,39.214927 h 14.08409 c 0.2736,0 0.49387,0.06861 0.49387,0.153834 v 1.806137 c 0,0.08522 -0.22027,0.153833 -0.49387,0.153833 h -14.08409 c -0.27359,0 -0.49386,-0.06861 -0.49386,-0.153833 v -1.806137 c 0,-0.08522 0.22026,-0.153834 0.49386,-0.153834 z" />
      <path
         id="path47"
         style="fill:#b3b3b3;stroke-width:1.85208;stroke-linecap:round;stroke-linejoin:round"
         d="M 220.91914,36.184605 H 240.214 c 0.37482,0 0.67659,0.06861 0.67659,0.153834 v 1.806137 c 0,0.08522 -0.30177,0.153833 -0.67659,0.153833 h -19.29486 c -0.37482,0 -0.67657,-0.06861 -0.67657,-0.153833 v -1.806137 c 0,-0.08522 0.30175,-0.153834 0.67657,-0.153834 z" />
    </g>
  </g>
</svg>
