<?xml version="1.0" encoding="UTF-8" standalone="no"?>
<!-- Created with Inkscape (http://www.inkscape.org/) -->

<svg
   width="264.9859"
   height="264.99332"
   viewBox="0 0 70.110849 70.112817"
   version="1.1"
   id="svg1"
   inkscape:version="1.3.2 (091e20ef0f, 2023-11-25)"
   xml:space="preserve"
   xmlns:inkscape="http://www.inkscape.org/namespaces/inkscape"
   xmlns:sodipodi="http://sodipodi.sourceforge.net/DTD/sodipodi-0.dtd"
   xmlns="http://www.w3.org/2000/svg"
   xmlns:svg="http://www.w3.org/2000/svg"><sodipodi:namedview
     id="namedview1"
     pagecolor="#ffffff"
     bordercolor="#000000"
     borderopacity="1"
     inkscape:showpageshadow="false"
     inkscape:pageopacity="0.0"
     inkscape:pagecheckerboard="false"
     inkscape:deskcolor="#ffffff"
     inkscape:document-units="px"
     labelstyle="default"
     showborder="false"
     borderlayer="false" /><defs
     id="defs1"><filter
       inkscape:collect="always"
       style="color-interpolation-filters:sRGB"
       id="filter23"
       x="-0.079926428"
       y="-0.15205568"
       width="1.1599482"
       height="1.3040929"><feGaussianBlur
         inkscape:collect="always"
         stdDeviation="0.49850969"
         id="feGaussianBlur23" /></filter></defs><g
     inkscape:label="Layer 1"
     inkscape:groupmode="layer"
     id="layer1"
     transform="translate(-59.145968,-4.4465431)"><g
       id="g36"><path
         style="color:#000000;opacity:0.6;fill:#ffffff;stroke:#000000;stroke-width:1.37054;stroke-linecap:round;stroke-linejoin:round;stroke-dasharray:none;filter:url(#filter23)"
         d="m 102.43628,28.434062 a 0.52921795,0.52921795 0 0 0 -0.1543,0.07227 c -1.1542,0.77305 -1.84795,1.998981 -2.20702,3.267578 -0.774725,0.551805 -1.549145,1.104649 -2.324225,1.654297 -0.14668,0.09738 -0.29031,0.236473 -0.38867,0.421875 l 0.008,-0.01367 c -1.025199,1.802098 -2.228137,3.501837 -3.666017,4.970704 l 0.01367,-0.01563 c -0.216229,0.203892 -0.31087,0.440825 -0.375,0.611328 -0.06413,0.170502 -0.106135,0.285383 -0.140625,0.33789 a 0.52921795,0.52921795 0 0 0 -0.02539,0.04297 c -0.34389,0.646473 -0.95415,1.162607 -1.65039,1.503906 a 0.52921795,0.52921795 0 0 0 -0.01563,0.0078 c -0.161067,0.08581 -0.528688,0.148522 -0.88086,0.486328 l 0.03125,-0.0293 c -1.41248,1.151819 -3.030646,2.033051 -4.726562,2.789063 a 0.52916503,0.52916503 0 0 0 -0.267578,0.699218 0.52916503,0.52916503 0 0 0 0.697265,0.267578 c 1.746228,-0.778439 3.45254,-1.700733 4.966797,-2.935546 a 0.52921795,0.52921795 0 0 0 0.03125,-0.02734 c 0.07143,-0.06852 0.298217,-0.134148 0.63086,-0.308594 0.846942,-0.415173 1.629295,-1.056842 2.105468,-1.939453 0.128535,-0.205413 0.188826,-0.397142 0.236328,-0.523437 0.04982,-0.132445 0.08469,-0.189619 0.109375,-0.212891 a 0.52921795,0.52921795 0 0 0 0.01563,-0.01367 c 1.516508,-1.549369 2.770089,-3.324566 3.829889,-5.187487 a 0.52921795,0.52921795 0 0 0 0.008,-0.01367 c 0.001,-0.0027 0.009,-0.01534 0.0391,-0.03516 a 0.52921795,0.52921795 0 0 0 0.0137,-0.0098 c 0.8191,-0.58082 1.63468,-1.162691 2.451165,-1.74414 l -0.37891,0.0918 a 0.52921795,0.52921795 0 0 0 0.58594,-0.396485 c 0.24628,-0.997241 0.79878,-1.88918 1.54688,-2.537109 -1e-5,0.97286 -0.002,1.945976 0.002,2.921875 a 0.52921795,0.52921795 0 0 0 0.56445,0.525391 c 0.0444,-0.0029 0.13653,-0.0082 0.16992,-0.0098 a 0.52921795,0.52921795 0 0 0 0.34571,-0.150391 c 0.16015,-0.157314 0.3221,-0.311896 0.48242,-0.46875 -0.11886,0.355402 -0.31867,0.646715 -0.35742,1.042969 a 0.52921795,0.52921795 0 0 0 0.14453,0.416016 c 0.45159,0.472084 0.87353,0.954598 1.21875,1.472656 4.9e-4,7.45e-4 0.001,0.0012 0.002,0.002 0.18753,0.293071 0.31705,0.558151 0.34961,0.792969 -0.0158,0.134575 -0.0822,0.321983 -0.14648,0.609375 a 0.52921795,0.52921795 0 0 0 0.14843,0.49414 c 0.63809,0.62145 1.27583,1.243606 1.91797,1.863282 a 0.52921795,0.52921795 0 0 0 0.0156,0.01563 c 0.19836,0.176273 0.37319,0.419215 0.55078,0.65625 -0.34219,0.416857 -0.69921,0.820506 -1.12109,1.113281 -0.30027,0.193489 -0.58752,0.310054 -0.80469,0.292969 -0.57831,-0.143426 -1.1599,-0.300659 -1.75,-0.451172 a 0.52921795,0.52921795 0 0 0 -0.01,-0.002 c -0.30281,-0.07169 -0.71019,-0.249712 -1.24023,-0.203125 a 0.52921795,0.52921795 0 0 0 -0.47071,0.412109 c -0.28566,1.278962 -0.58822,2.559354 -0.87695,3.845703 a 0.52916503,0.52916503 0 0 0 0.40039,0.632812 0.52916503,0.52916503 0 0 0 0.63281,-0.40039 c 0.25111,-1.118724 0.51343,-2.240932 0.76758,-3.365234 0.16783,0.03412 0.30065,0.04959 0.54492,0.107421 0.59832,0.152719 1.20279,0.317718 1.81641,0.46875 a 0.52921795,0.52921795 0 0 0 0.0762,0.01367 c 0.61846,0.05866 1.12212,-0.223209 1.5,-0.46875 a 0.52921795,0.52921795 0 0 0 0.0117,-0.0078 c 0.6302,-0.436171 1.14828,-0.991024 1.58789,-1.570313 a 0.52921795,0.52921795 0 0 0 0.10732,-0.331988 c -0.001,-0.05129 -0.005,-0.132881 -0.006,-0.15625 a 0.52921795,0.52921795 0 0 0 -0.0957,-0.292969 c -0.25549,-0.363928 -0.54049,-0.748542 -0.91797,-1.083984 -0.56493,-0.545248 -1.1261,-1.093972 -1.68945,-1.642578 0.049,-0.162603 0.10725,-0.299407 0.11914,-0.546875 a 0.52921795,0.52921795 0 0 0 -0.002,-0.08008 c -0.0557,-0.536087 -0.31187,-0.954317 -0.5293,-1.292968 a 0.52921795,0.52921795 0 0 0 -0.006,-0.0078 c -0.33769,-0.507184 -0.73499,-0.944942 -1.13281,-1.373047 0.10708,-0.704901 0.40749,-1.408411 0.75781,-2.152344 a 0.52921795,0.52921795 0 0 0 -0.0879,-0.583984 c -0.0547,-0.05962 -0.11023,-0.120698 -0.16602,-0.181641 a 0.52921795,0.52921795 0 0 0 -0.75585,-0.02344 c -0.33884,0.324843 -0.67233,0.653124 -1.00782,0.980469 -4.8e-4,-0.756684 -0.001,-1.513561 -0.002,-2.271485 a 0.52921795,0.52921795 0 0 0 -0.2207,-0.429687 c 0.0334,0.02394 -0.0389,-0.05583 -0.16797,-0.181641 -0.0645,-0.06291 -0.15204,-0.14143 -0.29102,-0.199219 -0.13897,-0.05779 -0.33368,-0.07622 -0.49804,-0.03125 z"
         id="path21" /><path
         style="color:#000000;opacity:0.6;fill:#ffffff;stroke:#000000;stroke-width:1.37054;stroke-linecap:round;stroke-linejoin:round;stroke-dasharray:none;filter:url(#filter23)"
         d="m 113.65893,38.947734 a 0.52921795,0.52921795 0 0 0 -0.53906,0.443359 l -0.83789,5.105469 h -9.91211 a 0.52916503,0.52916503 0 0 0 -0.5293,0.529297 0.52916503,0.52916503 0 0 0 0.5293,0.529296 h 10.36133 a 0.52921795,0.52921795 0 0 0 0.52343,-0.443359 l 0.25196,-1.533203 0.69922,7.269531 a 0.52921795,0.52921795 0 0 0 1.04492,0.05078 l 1.15234,-5.970703 0.76367,3.945313 a 0.52921795,0.52921795 0 0 0 1.03321,0.02734 l 1.02929,-4.115235 0.38672,0.544922 a 0.52921795,0.52921795 0 0 0 0.43164,0.224609 h 6.47852 a 0.52916503,0.52916503 0 0 0 0.5293,-0.529296 0.52916503,0.52916503 0 0 0 -0.5293,-0.529297 h -6.20508 l -0.89258,-1.261714 a 0.52921795,0.52921795 0 0 0 -0.94531,0.177734 l -0.73047,2.916016 -0.83008,-4.289062 a 0.52921795,0.52921795 0 0 0 -1.03906,0 l -0.97656,5.05664 -0.73828,-7.669922 a 0.52921795,0.52921795 0 0 0 -0.50977,-0.478515 z"
         id="path22" /><path
         style="color:#000000;opacity:0.6;fill:#ffffff;stroke:#000000;stroke-width:1.37054;stroke-linecap:round;stroke-linejoin:round;stroke-dasharray:none;filter:url(#filter23)"
         d="m 73.163326,38.947734 a 0.52921795,0.52921795 0 0 0 -0.53906,0.443359 l -0.83789,5.105469 h -9.91211 a 0.52916503,0.52916503 0 0 0 -0.5293,0.529297 0.52916503,0.52916503 0 0 0 0.5293,0.529296 h 10.36133 a 0.52921795,0.52921795 0 0 0 0.52343,-0.443359 l 0.25196,-1.533203 0.69922,7.269531 a 0.52921795,0.52921795 0 0 0 1.04492,0.05078 l 1.15234,-5.970703 0.76367,3.945313 a 0.52921795,0.52921795 0 0 0 1.03321,0.02734 l 1.02929,-4.115235 0.38672,0.544922 a 0.52921795,0.52921795 0 0 0 0.43164,0.224609 h 6.47852 a 0.52916503,0.52916503 0 0 0 0.5293,-0.529296 0.52916503,0.52916503 0 0 0 -0.5293,-0.529297 h -6.20508 l -0.89258,-1.261714 a 0.52921795,0.52921795 0 0 0 -0.94531,0.177734 l -0.73047,2.916016 -0.83008,-4.289062 a 0.52921795,0.52921795 0 0 0 -1.03906,0 l -0.97656,5.05664 -0.73828,-7.669922 a 0.52921795,0.52921795 0 0 0 -0.50977,-0.478515 z"
         id="path23" /><path
         style="color:#000000;fill:#800000;stroke:#ffffff;stroke-width:1.19062;stroke-linecap:round;stroke-linejoin:round;stroke-dasharray:none;stroke-opacity:1"
         d="m 102.06597,28.010668 a 0.52921795,0.52921795 0 0 0 -0.1543,0.07227 c -1.1542,0.77305 -1.84795,1.998981 -2.207025,3.267578 -0.77472,0.551805 -1.54914,1.104649 -2.32422,1.654297 -0.14668,0.09738 -0.29031,0.236473 -0.38867,0.421875 l 0.008,-0.01367 c -1.025199,1.802098 -2.228137,3.501837 -3.666017,4.970704 l 0.01367,-0.01563 c -0.216229,0.203892 -0.31087,0.440825 -0.375,0.611328 -0.06413,0.170502 -0.106135,0.285383 -0.140625,0.33789 a 0.52921795,0.52921795 0 0 0 -0.02539,0.04297 c -0.34389,0.646473 -0.95415,1.162607 -1.65039,1.503906 a 0.52921795,0.52921795 0 0 0 -0.01563,0.0078 c -0.161067,0.08581 -0.528688,0.148522 -0.88086,0.486328 l 0.03125,-0.0293 c -1.41248,1.151819 -3.030646,2.033051 -4.726562,2.789063 a 0.52916503,0.52916503 0 0 0 -0.267578,0.699218 0.52916503,0.52916503 0 0 0 0.697265,0.267578 c 1.746228,-0.778439 3.45254,-1.700733 4.966797,-2.935546 a 0.52921795,0.52921795 0 0 0 0.03125,-0.02734 c 0.07143,-0.06852 0.298217,-0.134148 0.63086,-0.308594 0.846942,-0.415173 1.629295,-1.056842 2.105468,-1.939453 0.128535,-0.205413 0.188826,-0.397142 0.236328,-0.523437 0.04982,-0.132445 0.08469,-0.189619 0.109375,-0.212891 a 0.52921795,0.52921795 0 0 0 0.01563,-0.01367 c 1.516508,-1.549369 2.770089,-3.324566 3.829889,-5.187487 a 0.52921795,0.52921795 0 0 0 0.008,-0.01367 c 10e-4,-0.0027 0.009,-0.01534 0.0391,-0.03516 a 0.52921795,0.52921795 0 0 0 0.0137,-0.0098 c 0.8191,-0.58082 1.63468,-1.162691 2.451165,-1.74414 l -0.37891,0.0918 A 0.52921795,0.52921795 0 0 0 100.63848,31.829 c 0.24628,-0.997241 0.79878,-1.88918 1.54688,-2.537109 -1e-5,0.97286 -0.002,1.945976 0.002,2.921875 a 0.52921795,0.52921795 0 0 0 0.56445,0.525391 c 0.0444,-0.0029 0.13653,-0.0082 0.16992,-0.0098 a 0.52921795,0.52921795 0 0 0 0.34571,-0.150391 c 0.16015,-0.157314 0.3221,-0.311896 0.48242,-0.46875 -0.11886,0.355402 -0.31867,0.646715 -0.35742,1.042969 a 0.52921795,0.52921795 0 0 0 0.14453,0.416016 c 0.45159,0.472084 0.87353,0.954598 1.21875,1.472656 4.9e-4,7.45e-4 0.001,0.0012 0.002,0.002 0.18753,0.293071 0.31705,0.558151 0.34961,0.792969 -0.0158,0.134575 -0.0822,0.321983 -0.14648,0.609375 a 0.52921795,0.52921795 0 0 0 0.14843,0.49414 c 0.63809,0.62145 1.27583,1.243606 1.91797,1.863282 a 0.52921795,0.52921795 0 0 0 0.0156,0.01563 c 0.19836,0.176273 0.37319,0.419215 0.55078,0.65625 -0.34219,0.416857 -0.69921,0.820506 -1.12109,1.113281 -0.30027,0.193489 -0.58752,0.310054 -0.80469,0.292969 -0.57831,-0.143426 -1.1599,-0.300659 -1.75,-0.451172 a 0.52921795,0.52921795 0 0 0 -0.01,-0.002 c -0.30281,-0.07169 -0.71019,-0.249712 -1.24023,-0.203125 a 0.52921795,0.52921795 0 0 0 -0.47071,0.412109 c -0.28566,1.278962 -0.58822,2.559354 -0.87695,3.845703 a 0.52916503,0.52916503 0 0 0 0.40039,0.632812 0.52916503,0.52916503 0 0 0 0.63281,-0.40039 c 0.25111,-1.118724 0.51343,-2.240932 0.76758,-3.365234 0.16783,0.03412 0.30065,0.04959 0.54492,0.107421 0.59832,0.152719 1.20279,0.317718 1.81641,0.46875 a 0.52921795,0.52921795 0 0 0 0.0762,0.01367 c 0.61846,0.05866 1.12212,-0.223209 1.5,-0.46875 a 0.52921795,0.52921795 0 0 0 0.0117,-0.0078 c 0.6302,-0.436171 1.14828,-0.991024 1.58789,-1.570313 a 0.52921795,0.52921795 0 0 0 0.10732,-0.331988 c -0.001,-0.05129 -0.005,-0.132881 -0.006,-0.15625 a 0.52921795,0.52921795 0 0 0 -0.0957,-0.292969 c -0.25549,-0.363928 -0.54049,-0.748542 -0.91797,-1.083984 -0.56493,-0.545248 -1.1261,-1.093972 -1.68945,-1.642578 0.049,-0.162603 0.10725,-0.299407 0.11914,-0.546875 a 0.52921795,0.52921795 0 0 0 -0.002,-0.08008 c -0.0557,-0.536087 -0.31187,-0.954317 -0.5293,-1.292968 a 0.52921795,0.52921795 0 0 0 -0.006,-0.0078 c -0.33769,-0.507184 -0.73499,-0.944942 -1.13281,-1.373047 0.10708,-0.704901 0.40749,-1.408411 0.75781,-2.152344 a 0.52921795,0.52921795 0 0 0 -0.0879,-0.583984 c -0.0547,-0.05962 -0.11023,-0.120698 -0.16602,-0.181641 a 0.52921795,0.52921795 0 0 0 -0.75585,-0.02344 c -0.33884,0.324843 -0.67233,0.653124 -1.00782,0.980469 -4.8e-4,-0.756684 -0.001,-1.513561 -0.002,-2.271485 a 0.52921795,0.52921795 0 0 0 -0.2207,-0.429687 c 0.0334,0.02394 -0.0389,-0.05583 -0.16797,-0.181641 -0.0645,-0.06291 -0.15204,-0.14143 -0.29102,-0.199219 -0.13897,-0.05779 -0.33368,-0.07622 -0.49804,-0.03125 z"
         id="path14" /><path
         style="color:#000000;fill:#800000;stroke:#ffffff;stroke-width:1.19062;stroke-linecap:round;stroke-linejoin:round;stroke-dasharray:none;stroke-opacity:1"
         d="m 113.28862,38.52434 a 0.52921795,0.52921795 0 0 0 -0.53906,0.443359 l -0.83789,5.105469 h -9.91211 a 0.52916503,0.52916503 0 0 0 -0.5293,0.529297 0.52916503,0.52916503 0 0 0 0.5293,0.529296 h 10.36133 a 0.52921795,0.52921795 0 0 0 0.52343,-0.443359 l 0.25196,-1.533203 0.69922,7.269531 a 0.52921795,0.52921795 0 0 0 1.04492,0.05078 l 1.15234,-5.970703 0.76367,3.945313 a 0.52921795,0.52921795 0 0 0 1.03321,0.02734 l 1.02929,-4.115235 0.38672,0.544922 a 0.52921795,0.52921795 0 0 0 0.43164,0.224609 h 6.47852 a 0.52916503,0.52916503 0 0 0 0.5293,-0.529296 0.52916503,0.52916503 0 0 0 -0.5293,-0.529297 h -6.20508 l -0.89258,-1.261714 a 0.52921795,0.52921795 0 0 0 -0.94531,0.177734 l -0.73047,2.916016 -0.83008,-4.289062 a 0.52921795,0.52921795 0 0 0 -1.03906,0 l -0.97656,5.05664 -0.73828,-7.669922 a 0.52921795,0.52921795 0 0 0 -0.50977,-0.478515 z"
         id="path15" /><path
         style="color:#000000;fill:#800000;stroke:#ffffff;stroke-width:1.19062;stroke-linecap:round;stroke-linejoin:round;stroke-dasharray:none;stroke-opacity:1"
         d="m 72.793016,38.52434 a 0.52921795,0.52921795 0 0 0 -0.53906,0.443359 l -0.83789,5.105469 h -9.91211 a 0.52916503,0.52916503 0 0 0 -0.5293,0.529297 0.52916503,0.52916503 0 0 0 0.5293,0.529296 h 10.36133 a 0.52921795,0.52921795 0 0 0 0.52343,-0.443359 l 0.25196,-1.533203 0.69922,7.269531 a 0.52921795,0.52921795 0 0 0 1.04492,0.05078 l 1.15234,-5.970703 0.76367,3.945313 a 0.52921795,0.52921795 0 0 0 1.03321,0.02734 l 1.02929,-4.115235 0.38672,0.544922 a 0.52921795,0.52921795 0 0 0 0.43164,0.224609 h 6.47852 a 0.52916503,0.52916503 0 0 0 0.5293,-0.529296 0.52916503,0.52916503 0 0 0 -0.5293,-0.529297 h -6.20508 l -0.89258,-1.261714 a 0.52921795,0.52921795 0 0 0 -0.94531,0.177734 l -0.73047,2.916016 -0.83008,-4.289062 a 0.52921795,0.52921795 0 0 0 -1.03906,0 l -0.97656,5.05664 -0.73828,-7.669922 a 0.52921795,0.52921795 0 0 0 -0.50977,-0.478515 z"
         id="path16" /><path
         style="color:#000000;fill:#F97300;stroke-linecap:round;stroke-linejoin:round;-inkscape-stroke:none"
         d="m 102.06597,28.010668 a 0.52921795,0.52921795 0 0 0 -0.1543,0.07227 c -1.1542,0.77305 -1.84795,1.998981 -2.207025,3.267578 -0.77472,0.551805 -1.54914,1.104649 -2.32422,1.654297 -0.14668,0.09738 -0.29031,0.236473 -0.38867,0.421875 l 0.008,-0.01367 c -1.025199,1.802098 -2.228137,3.501837 -3.666017,4.970704 l 0.01367,-0.01563 c -0.216229,0.203892 -0.31087,0.440825 -0.375,0.611328 -0.06413,0.170502 -0.106135,0.285383 -0.140625,0.33789 a 0.52921795,0.52921795 0 0 0 -0.02539,0.04297 c -0.34389,0.646473 -0.95415,1.162607 -1.65039,1.503906 a 0.52921795,0.52921795 0 0 0 -0.01563,0.0078 c -0.161067,0.08581 -0.528688,0.148522 -0.88086,0.486328 l 0.03125,-0.0293 c -1.41248,1.151819 -3.030646,2.033051 -4.726562,2.789063 a 0.52916503,0.52916503 0 0 0 -0.267578,0.699218 0.52916503,0.52916503 0 0 0 0.697265,0.267578 c 1.746228,-0.778439 3.45254,-1.700733 4.966797,-2.935546 a 0.52921795,0.52921795 0 0 0 0.03125,-0.02734 c 0.07143,-0.06852 0.298217,-0.134148 0.63086,-0.308594 0.846942,-0.415173 1.629295,-1.056842 2.105468,-1.939453 0.128535,-0.205413 0.188826,-0.397142 0.236328,-0.523437 0.04982,-0.132445 0.08469,-0.189619 0.109375,-0.212891 a 0.52921795,0.52921795 0 0 0 0.01563,-0.01367 c 1.516508,-1.549369 2.770089,-3.324566 3.829889,-5.187487 a 0.52921795,0.52921795 0 0 0 0.008,-0.01367 c 10e-4,-0.0027 0.009,-0.01534 0.0391,-0.03516 a 0.52921795,0.52921795 0 0 0 0.0137,-0.0098 c 0.8191,-0.58082 1.63468,-1.162691 2.451165,-1.74414 l -0.37891,0.0918 A 0.52921795,0.52921795 0 0 0 100.63848,31.829 c 0.24628,-0.997241 0.79878,-1.88918 1.54688,-2.537109 -1e-5,0.97286 -0.002,1.945976 0.002,2.921875 a 0.52921795,0.52921795 0 0 0 0.56445,0.525391 c 0.0444,-0.0029 0.13653,-0.0082 0.16992,-0.0098 a 0.52921795,0.52921795 0 0 0 0.34571,-0.150391 c 0.16015,-0.157314 0.3221,-0.311896 0.48242,-0.46875 -0.11886,0.355402 -0.31867,0.646715 -0.35742,1.042969 a 0.52921795,0.52921795 0 0 0 0.14453,0.416016 c 0.45159,0.472084 0.87353,0.954598 1.21875,1.472656 4.9e-4,7.45e-4 0.001,0.0012 0.002,0.002 0.18753,0.293071 0.31705,0.558151 0.34961,0.792969 -0.0158,0.134575 -0.0822,0.321983 -0.14648,0.609375 a 0.52921795,0.52921795 0 0 0 0.14843,0.49414 c 0.63809,0.62145 1.27583,1.243606 1.91797,1.863282 a 0.52921795,0.52921795 0 0 0 0.0156,0.01563 c 0.19836,0.176273 0.37319,0.419215 0.55078,0.65625 -0.34219,0.416857 -0.69921,0.820506 -1.12109,1.113281 -0.30027,0.193489 -0.58752,0.310054 -0.80469,0.292969 -0.57831,-0.143426 -1.1599,-0.300659 -1.75,-0.451172 a 0.52921795,0.52921795 0 0 0 -0.01,-0.002 c -0.30281,-0.07169 -0.71019,-0.249712 -1.24023,-0.203125 a 0.52921795,0.52921795 0 0 0 -0.47071,0.412109 c -0.28566,1.278962 -0.58822,2.559354 -0.87695,3.845703 a 0.52916503,0.52916503 0 0 0 0.40039,0.632812 0.52916503,0.52916503 0 0 0 0.63281,-0.40039 c 0.25111,-1.118724 0.51343,-2.240932 0.76758,-3.365234 0.16783,0.03412 0.30065,0.04959 0.54492,0.107421 0.59832,0.152719 1.20279,0.317718 1.81641,0.46875 a 0.52921795,0.52921795 0 0 0 0.0762,0.01367 c 0.61846,0.05866 1.12212,-0.223209 1.5,-0.46875 a 0.52921795,0.52921795 0 0 0 0.0117,-0.0078 c 0.6302,-0.436171 1.14828,-0.991024 1.58789,-1.570313 a 0.52921795,0.52921795 0 0 0 0.10732,-0.331988 c -0.001,-0.05129 -0.005,-0.132881 -0.006,-0.15625 a 0.52921795,0.52921795 0 0 0 -0.0957,-0.292969 c -0.25549,-0.363928 -0.54049,-0.748542 -0.91797,-1.083984 -0.56493,-0.545248 -1.1261,-1.093972 -1.68945,-1.642578 0.049,-0.162603 0.10725,-0.299407 0.11914,-0.546875 a 0.52921795,0.52921795 0 0 0 -0.002,-0.08008 c -0.0557,-0.536087 -0.31187,-0.954317 -0.5293,-1.292968 a 0.52921795,0.52921795 0 0 0 -0.006,-0.0078 c -0.33769,-0.507184 -0.73499,-0.944942 -1.13281,-1.373047 0.10708,-0.704901 0.40749,-1.408411 0.75781,-2.152344 a 0.52921795,0.52921795 0 0 0 -0.0879,-0.583984 c -0.0547,-0.05962 -0.11023,-0.120698 -0.16602,-0.181641 a 0.52921795,0.52921795 0 0 0 -0.75585,-0.02344 c -0.33884,0.324843 -0.67233,0.653124 -1.00782,0.980469 -4.8e-4,-0.756684 -0.001,-1.513561 -0.002,-2.271485 a 0.52921795,0.52921795 0 0 0 -0.2207,-0.429687 c 0.0334,0.02394 -0.0389,-0.05583 -0.16797,-0.181641 -0.0645,-0.06291 -0.15204,-0.14143 -0.29102,-0.199219 -0.13897,-0.05779 -0.33368,-0.07622 -0.49804,-0.03125 z"
         id="path8" /><path
         style="color:#000000;fill:#F97300;stroke-linecap:round;stroke-linejoin:round;-inkscape-stroke:none"
         d="m 113.28862,38.52434 a 0.52921795,0.52921795 0 0 0 -0.53906,0.443359 l -0.83789,5.105469 h -9.91211 a 0.52916503,0.52916503 0 0 0 -0.5293,0.529297 0.52916503,0.52916503 0 0 0 0.5293,0.529296 h 10.36133 a 0.52921795,0.52921795 0 0 0 0.52343,-0.443359 l 0.25196,-1.533203 0.69922,7.269531 a 0.52921795,0.52921795 0 0 0 1.04492,0.05078 l 1.15234,-5.970703 0.76367,3.945313 a 0.52921795,0.52921795 0 0 0 1.03321,0.02734 l 1.02929,-4.115235 0.38672,0.544922 a 0.52921795,0.52921795 0 0 0 0.43164,0.224609 h 6.47852 a 0.52916503,0.52916503 0 0 0 0.5293,-0.529296 0.52916503,0.52916503 0 0 0 -0.5293,-0.529297 h -6.20508 l -0.89258,-1.261714 a 0.52921795,0.52921795 0 0 0 -0.94531,0.177734 l -0.73047,2.916016 -0.83008,-4.289062 a 0.52921795,0.52921795 0 0 0 -1.03906,0 l -0.97656,5.05664 -0.73828,-7.669922 a 0.52921795,0.52921795 0 0 0 -0.50977,-0.478515 z"
         id="path11" /><path
         style="color:#000000;fill:#F97300;stroke-linecap:round;stroke-linejoin:round;-inkscape-stroke:none"
         d="m 72.793016,38.52434 a 0.52921795,0.52921795 0 0 0 -0.53906,0.443359 l -0.83789,5.105469 h -9.91211 a 0.52916503,0.52916503 0 0 0 -0.5293,0.529297 0.52916503,0.52916503 0 0 0 0.5293,0.529296 h 10.36133 a 0.52921795,0.52921795 0 0 0 0.52343,-0.443359 l 0.25196,-1.533203 0.69922,7.269531 a 0.52921795,0.52921795 0 0 0 1.04492,0.05078 l 1.15234,-5.970703 0.76367,3.945313 a 0.52921795,0.52921795 0 0 0 1.03321,0.02734 l 1.02929,-4.115235 0.38672,0.544922 a 0.52921795,0.52921795 0 0 0 0.43164,0.224609 h 6.47852 a 0.52916503,0.52916503 0 0 0 0.5293,-0.529296 0.52916503,0.52916503 0 0 0 -0.5293,-0.529297 h -6.20508 l -0.89258,-1.261714 a 0.52921795,0.52921795 0 0 0 -0.94531,0.177734 l -0.73047,2.916016 -0.83008,-4.289062 a 0.52921795,0.52921795 0 0 0 -1.03906,0 l -0.97656,5.05664 -0.73828,-7.669922 a 0.52921795,0.52921795 0 0 0 -0.50977,-0.478515 z"
         id="path12" /></g><g
       id="g35"
       transform="translate(0.37131834,0.06056526)"><path
         style="color:#000000;fill:#F97300;stroke:#F97300;stroke-width:2.24367;stroke-linecap:round;stroke-linejoin:round;stroke-dasharray:none;stroke-opacity:1"
         d="m -93.830078,5.5078125 c -18.733172,0 -33.933592,15.2004265 -33.933592,33.9335935 0,18.733168 15.20042,33.935547 33.933592,33.935547 18.733167,0 33.933594,-15.202379 33.933594,-33.935547 0,-18.733167 -15.200427,-33.9335935 -33.933594,-33.9335935 z m 0,1.3710937 c 17.992468,10e-8 32.564453,14.5700318 32.564453,32.5624998 0,17.992468 -14.571985,32.564453 -32.564453,32.564453 -17.992472,0 -32.562502,-14.571985 -32.562502,-32.564453 0,-17.992468 14.57003,-32.5624998 32.562502,-32.5624998 z"
         id="path35"
         transform="scale(-1,1)" /><path
         style="color:#000000;fill:#f9f9f9;stroke:none;stroke-width:0.523875;stroke-linecap:round;stroke-linejoin:round;stroke-dasharray:none"
         d="m -93.830078,5.5078125 c -18.733172,0 -33.933592,15.2004265 -33.933592,33.9335935 0,18.733168 15.20042,33.935547 33.933592,33.935547 18.733167,0 33.933594,-15.202379 33.933594,-33.935547 0,-18.733167 -15.200427,-33.9335935 -33.933594,-33.9335935 z m 0,1.3710937 c 17.992468,10e-8 32.564453,14.5700318 32.564453,32.5624998 0,17.992468 -14.571985,32.564453 -32.564453,32.564453 -17.992472,0 -32.562502,-14.571985 -32.562502,-32.564453 0,-17.992468 14.57003,-32.5624998 32.562502,-32.5624998 z"
         id="circle35"
         transform="scale(-1,1)" /></g></g></svg>
